<svg width="40" height="22" id="Calque_1" data-name="Calque 1" xmlns="http://www.w3.org/2000/svg" viewBox="0 0 288 258.44"><defs><style>.cls-1{fill:#FDBD28;}</style></defs><path class="cls-1" d="M157.64,9.6,131.1,28.94a9.65,9.65,0,0,0-4,7.8v89.07L154,104.45a9.65,9.65,0,0,0,3.64-7.55Z"/><path class="cls-1" d="M157.64,134.15l-24.06,18.33a16.34,16.34,0,0,0-6.44,13v82.34L150.48,232a16.34,16.34,0,0,0,7.16-13.52Z"/><path class="cls-1" d="M188.3,214.6c-.6-13.43-.11-97.63.09-127.6a21.68,21.68,0,0,1,8.44-17l22.45-17.29V184.74a21.5,21.5,0,0,1-9.81,18l-19.53,12.65A1.06,1.06,0,0,1,188.3,214.6Z"/><path class="cls-1" d="M65.78,214.6c-.6-13.43-.1-97.63.09-127.6a21.69,21.69,0,0,1,8.45-17L96.77,52.69V184.74a21.51,21.51,0,0,1-9.82,18L67.42,215.44A1.06,1.06,0,0,1,65.78,214.6Z"/></svg>