<svg width="45" height="45" viewBox="0 0 45 45" fill="none" xmlns="http://www.w3.org/2000/svg">
<path d="M39.375 34.6875C39.375 37.2769 37.2769 39.375 34.6875 39.375H10.3125C7.72406 39.375 5.625 37.2769 5.625 34.6875V10.3125C5.625 7.72312 7.72406 5.625 10.3125 5.625H34.6875C37.2769 5.625 39.375 7.72312 39.375 10.3125V34.6875Z" fill="#0288D1"/>
<path d="M11.25 17.8125H15.9375V33.75H11.25V17.8125ZM13.5797 15.9375H13.5534C12.1547 15.9375 11.25 14.895 11.25 13.5928C11.25 12.2625 12.1828 11.25 13.6069 11.25C15.0328 11.25 15.9112 12.2625 15.9375 13.5928C15.9375 14.8941 15.0328 15.9375 13.5797 15.9375ZM33.75 33.75H29.0625V25.2197C29.0625 23.1591 27.9141 21.7528 26.07 21.7528C24.6628 21.7528 23.9016 22.7016 23.5322 23.6184C23.3972 23.9466 23.4375 24.8541 23.4375 25.3125V33.75H18.75V17.8125H23.4375V20.265C24.1134 19.2187 25.1719 17.8125 27.8794 17.8125C31.2338 17.8125 33.7491 19.9219 33.7491 24.6319L33.75 33.75Z" fill="white"/>
</svg>
