<svg width="34" height="35" viewBox="0 0 34 35" fill="none" xmlns="http://www.w3.org/2000/svg">
<path d="M11.3722 27.166C11.3722 27.3027 11.2145 27.4121 11.0157 27.4121C10.7895 27.4326 10.6319 27.3232 10.6319 27.166C10.6319 27.0293 10.7895 26.9199 10.9883 26.9199C11.194 26.8994 11.3722 27.0088 11.3722 27.166ZM9.24032 26.8584C9.19234 26.9951 9.32944 27.1523 9.53508 27.1934C9.71331 27.2617 9.91895 27.1934 9.96008 27.0566C10.0012 26.9199 9.87097 26.7627 9.66532 26.7012C9.4871 26.6533 9.28831 26.7217 9.24032 26.8584ZM12.2702 26.7422C12.0714 26.79 11.9343 26.9199 11.9548 27.0771C11.9754 27.2139 12.1536 27.3027 12.3593 27.2549C12.5581 27.207 12.6952 27.0771 12.6746 26.9404C12.654 26.8105 12.469 26.7217 12.2702 26.7422ZM16.7806 0.546875C7.27298 0.546875 0 7.74512 0 17.2266C0 24.8076 4.78468 31.2949 11.619 33.5781C12.4964 33.7353 12.8048 33.1953 12.8048 32.751C12.8048 32.3271 12.7843 29.9893 12.7843 28.5537C12.7843 28.5537 7.98589 29.5791 6.97823 26.5166C6.97823 26.5166 6.19677 24.5273 5.07258 24.0146C5.07258 24.0146 3.50282 22.9414 5.18226 22.9619C5.18226 22.9619 6.88911 23.0986 7.82823 24.7256C9.32944 27.3643 11.8452 26.6055 12.8254 26.1543C12.9831 25.0605 13.4286 24.3018 13.9222 23.8506C10.0903 23.4268 6.22419 22.873 6.22419 16.2969C6.22419 14.417 6.74516 13.4736 7.84194 12.2705C7.66371 11.8262 7.08105 9.99414 8.02016 7.62891C9.45282 7.18457 12.75 9.47461 12.75 9.47461C14.121 9.0918 15.5948 8.89355 17.0548 8.89355C18.5149 8.89355 19.9887 9.0918 21.3597 9.47461C21.3597 9.47461 24.6569 7.17773 26.0895 7.62891C27.0286 10.001 26.446 11.8262 26.2677 12.2705C27.3645 13.4805 28.0363 14.4238 28.0363 16.2969C28.0363 22.8936 23.9988 23.4199 20.1669 23.8506C20.7976 24.3906 21.3323 25.416 21.3323 27.0225C21.3323 29.3262 21.3117 32.1768 21.3117 32.7373C21.3117 33.1816 21.627 33.7217 22.4976 33.5644C29.3524 31.2949 34 24.8076 34 17.2266C34 7.74512 26.2883 0.546875 16.7806 0.546875ZM6.6629 24.124C6.57379 24.1924 6.59436 24.3496 6.71089 24.4795C6.82056 24.5889 6.97823 24.6367 7.06734 24.5478C7.15645 24.4795 7.13589 24.3223 7.01936 24.1924C6.90968 24.083 6.75202 24.0352 6.6629 24.124ZM5.92258 23.5703C5.8746 23.6592 5.94315 23.7686 6.08024 23.8369C6.18992 23.9053 6.32702 23.8848 6.375 23.7891C6.42298 23.7002 6.35444 23.5908 6.21734 23.5225C6.08024 23.4814 5.97056 23.5019 5.92258 23.5703ZM8.14355 26.0039C8.03387 26.0928 8.075 26.2978 8.23266 26.4277C8.39032 26.585 8.58911 26.6055 8.67823 26.4961C8.76734 26.4072 8.72621 26.2021 8.58911 26.0723C8.43831 25.915 8.23266 25.8945 8.14355 26.0039ZM7.3621 24.999C7.25242 25.0674 7.25242 25.2451 7.3621 25.4023C7.47177 25.5596 7.65686 25.6279 7.74597 25.5596C7.85565 25.4707 7.85565 25.293 7.74597 25.1357C7.65 24.9785 7.47177 24.9102 7.3621 24.999Z" fill="white"/>
</svg>
